<mxfile host="app.diagrams.net" modified="2024-01-12T11:35:25.512Z" agent="Mozilla/5.0 (Windows NT 10.0; Win64; x64; rv:121.0) Gecko/20100101 Firefox/121.0" etag="1nQxqYQ-6rz6L1uVYhYk" version="22.1.18" type="device">
  <diagram id="R2lEEEUBdFMjLlhIrx00" name="Page-1">
    <mxGraphModel dx="781" dy="819" grid="1" gridSize="10" guides="1" tooltips="1" connect="1" arrows="1" fold="1" page="1" pageScale="1" pageWidth="850" pageHeight="1100" math="0" shadow="0" extFonts="Permanent Marker^https://fonts.googleapis.com/css?family=Permanent+Marker">
      <root>
        <mxCell id="0" />
        <mxCell id="1" parent="0" />
        <mxCell id="JytQrnsEqbtqdjy73jpZ-8" value="Radnik" style="whiteSpace=wrap;html=1;align=center;fontSize=16;" vertex="1" parent="1">
          <mxGeometry x="40" y="164" width="100" height="40" as="geometry" />
        </mxCell>
        <mxCell id="JytQrnsEqbtqdjy73jpZ-9" value="Masina" style="whiteSpace=wrap;html=1;align=center;fontSize=16;" vertex="1" parent="1">
          <mxGeometry x="460" y="164" width="100" height="40" as="geometry" />
        </mxCell>
        <mxCell id="JytQrnsEqbtqdjy73jpZ-10" value="Deo" style="whiteSpace=wrap;html=1;align=center;fontSize=16;" vertex="1" parent="1">
          <mxGeometry x="460" y="404" width="100" height="40" as="geometry" />
        </mxCell>
        <mxCell id="JytQrnsEqbtqdjy73jpZ-25" style="edgeStyle=none;curved=1;rounded=0;orthogonalLoop=1;jettySize=auto;html=1;exitX=0.5;exitY=0;exitDx=0;exitDy=0;entryX=0.5;entryY=1;entryDx=0;entryDy=0;fontSize=12;startSize=8;endSize=8;" edge="1" parent="1" source="JytQrnsEqbtqdjy73jpZ-18" target="JytQrnsEqbtqdjy73jpZ-19">
          <mxGeometry relative="1" as="geometry" />
        </mxCell>
        <mxCell id="JytQrnsEqbtqdjy73jpZ-26" style="edgeStyle=none;curved=1;rounded=0;orthogonalLoop=1;jettySize=auto;html=1;exitX=1;exitY=0.5;exitDx=0;exitDy=0;entryX=0;entryY=0.5;entryDx=0;entryDy=0;fontSize=12;startSize=8;endSize=8;" edge="1" parent="1" source="JytQrnsEqbtqdjy73jpZ-18" target="JytQrnsEqbtqdjy73jpZ-20">
          <mxGeometry relative="1" as="geometry" />
        </mxCell>
        <mxCell id="JytQrnsEqbtqdjy73jpZ-18" value="proizvodi" style="shape=rhombus;perimeter=rhombusPerimeter;whiteSpace=wrap;html=1;align=center;fontSize=16;" vertex="1" parent="1">
          <mxGeometry x="240" y="274" width="120" height="60" as="geometry" />
        </mxCell>
        <mxCell id="JytQrnsEqbtqdjy73jpZ-21" style="edgeStyle=none;curved=1;rounded=0;orthogonalLoop=1;jettySize=auto;html=1;exitX=0;exitY=0.5;exitDx=0;exitDy=0;entryX=1;entryY=0.5;entryDx=0;entryDy=0;fontSize=12;startSize=8;endSize=8;" edge="1" parent="1" source="JytQrnsEqbtqdjy73jpZ-19" target="JytQrnsEqbtqdjy73jpZ-8">
          <mxGeometry relative="1" as="geometry" />
        </mxCell>
        <mxCell id="JytQrnsEqbtqdjy73jpZ-22" style="edgeStyle=none;curved=1;rounded=0;orthogonalLoop=1;jettySize=auto;html=1;exitX=1;exitY=0.5;exitDx=0;exitDy=0;entryX=0;entryY=0.5;entryDx=0;entryDy=0;fontSize=12;startSize=8;endSize=8;" edge="1" parent="1" source="JytQrnsEqbtqdjy73jpZ-19" target="JytQrnsEqbtqdjy73jpZ-9">
          <mxGeometry relative="1" as="geometry" />
        </mxCell>
        <mxCell id="JytQrnsEqbtqdjy73jpZ-19" value="osposobljen" style="shape=associativeEntity;whiteSpace=wrap;html=1;align=center;fontSize=16;" vertex="1" parent="1">
          <mxGeometry x="230" y="154" width="140" height="60" as="geometry" />
        </mxCell>
        <mxCell id="JytQrnsEqbtqdjy73jpZ-23" style="edgeStyle=none;curved=1;rounded=0;orthogonalLoop=1;jettySize=auto;html=1;exitX=0.5;exitY=0;exitDx=0;exitDy=0;entryX=0.5;entryY=1;entryDx=0;entryDy=0;fontSize=12;startSize=8;endSize=8;" edge="1" parent="1" source="JytQrnsEqbtqdjy73jpZ-20" target="JytQrnsEqbtqdjy73jpZ-9">
          <mxGeometry relative="1" as="geometry" />
        </mxCell>
        <mxCell id="JytQrnsEqbtqdjy73jpZ-24" style="edgeStyle=none;curved=1;rounded=0;orthogonalLoop=1;jettySize=auto;html=1;exitX=0.5;exitY=1;exitDx=0;exitDy=0;entryX=0.5;entryY=0;entryDx=0;entryDy=0;fontSize=12;startSize=8;endSize=8;" edge="1" parent="1" source="JytQrnsEqbtqdjy73jpZ-20" target="JytQrnsEqbtqdjy73jpZ-10">
          <mxGeometry relative="1" as="geometry" />
        </mxCell>
        <mxCell id="JytQrnsEqbtqdjy73jpZ-20" value="&lt;div&gt;moze&lt;/div&gt;&lt;div&gt;proizvesti&lt;/div&gt;" style="shape=associativeEntity;whiteSpace=wrap;html=1;align=center;fontSize=16;" vertex="1" parent="1">
          <mxGeometry x="440" y="274" width="140" height="60" as="geometry" />
        </mxCell>
        <mxCell id="JytQrnsEqbtqdjy73jpZ-28" style="edgeStyle=none;curved=1;rounded=0;orthogonalLoop=1;jettySize=auto;html=1;exitX=0;exitY=0.5;exitDx=0;exitDy=0;fontSize=12;startSize=8;endSize=8;" edge="1" parent="1" source="JytQrnsEqbtqdjy73jpZ-27">
          <mxGeometry relative="1" as="geometry">
            <mxPoint x="80" y="160" as="targetPoint" />
            <Array as="points">
              <mxPoint x="140" y="60" />
            </Array>
          </mxGeometry>
        </mxCell>
        <mxCell id="JytQrnsEqbtqdjy73jpZ-29" style="edgeStyle=none;curved=1;rounded=0;orthogonalLoop=1;jettySize=auto;html=1;exitX=1;exitY=0.5;exitDx=0;exitDy=0;entryX=0.5;entryY=0;entryDx=0;entryDy=0;fontSize=12;startSize=8;endSize=8;" edge="1" parent="1" source="JytQrnsEqbtqdjy73jpZ-27" target="JytQrnsEqbtqdjy73jpZ-9">
          <mxGeometry relative="1" as="geometry">
            <Array as="points">
              <mxPoint x="480" y="70" />
            </Array>
          </mxGeometry>
        </mxCell>
        <mxCell id="JytQrnsEqbtqdjy73jpZ-27" value="odrzava" style="shape=rhombus;perimeter=rhombusPerimeter;whiteSpace=wrap;html=1;align=center;fontSize=16;" vertex="1" parent="1">
          <mxGeometry x="240" y="30" width="120" height="60" as="geometry" />
        </mxCell>
      </root>
    </mxGraphModel>
  </diagram>
</mxfile>
